/vscmnt/brussel_pixiu_data/_data_brussel/112/vsc11236/PredSimResults/SUBJ07opt3D/expIG/worker_04.mot
version=1
nRows=6
nColumns=50
inDegrees=yes
endheader
                time	         pelvis_tilt	         pelvis_list	     pelvis_rotation	           pelvis_tx	           pelvis_ty	           pelvis_tz	       hip_flexion_r	     hip_adduction_r	      hip_rotation_r	        knee_angle_r	       ankle_angle_r	         mtp_angle_r	       hip_flexion_l	     hip_adduction_l	      hip_rotation_l	        knee_angle_l	       ankle_angle_l	         mtp_angle_l	    lumbar_extension	      lumbar_bending	     lumbar_rotation	 ercspn_r/activation	 intobl_r/activation	 extobl_r/activation	    abd_r/activation	    add_r/activation	hamstrings_r/activation	bifemsh_r/activation	glut_max_r/activation	iliopsoas_r/activation	rect_fem_r/activation	  vasti_r/activation	gastroc_r/activation	 soleus_r/activation	tib_ant_r/activation	 ercspn_l/activation	 intobl_l/activation	 extobl_l/activation	    abd_l/activation	    add_l/activation	hamstrings_l/activation	bifemsh_l/activation	glut_max_l/activation	iliopsoas_l/activation	rect_fem_l/activation	  vasti_l/activation	gastroc_l/activation	 soleus_l/activation	tib_ant_l/activation	
          1.89896757	         -2.53854778	          0.31552462	         -8.13209878	          1.70907082	          0.86244603	          0.01744406	        -11.81226404	          0.16614327	          3.27895060	         -7.55842461	         11.08501600	         20.83907041	         26.37700979	         -2.17912156	         -3.09928971	         -6.97516568	          0.61918792	          0.24174848	         -8.31385547	          2.83513105	         -0.13197187	          0.04619313	          0.00999999	          0.00999999	          0.05300856	          0.00999999	          0.01000033	          0.11813467	          0.01000000	          0.13166420	          0.01000002	          0.00999999	          0.13589395	          0.27742354	          0.02150656	          0.12710293	          0.15172356	          0.01000000	          0.01317578	          0.08725254	          0.03478228	          0.01000003	          0.02077641	          0.02018476	          0.01211000	          0.01210997	          0.00999999	          0.00999999	          0.33402089	
          1.91162736	         -2.58470422	          0.25041414	         -8.11673782	          1.72211724	          0.86107790	          0.01679047	        -12.29876974	          0.12216507	          2.87418399	         -8.21467516	         10.63146877	         22.18784672	         26.00802638	         -1.96520922	         -2.84608229	         -7.64258030	          0.39096683	          0.24397437	         -8.22224258	          2.49344783	          0.09740618	          0.08043412	          0.00999999	          0.00999999	          0.04377268	          0.01000000	          0.01000037	          0.09755163	          0.01310669	          0.10872386	          0.01789321	          0.01000000	          0.12344828	          0.27193559	          0.01775940	          0.11708054	          0.12575224	          0.01000000	          0.01088012	          0.10927263	          0.02911825	          0.08842277	          0.06424903	          0.01666790	          0.01000004	          0.01000000	          0.01466512	          0.01269810	          0.32775469	
          1.92428714	         -2.62459376	          0.17972975	         -8.05692644	          1.73544725	          0.85986513	          0.01605767	        -12.75502248	          0.08710882	          2.44185591	         -8.96416915	         10.06354889	         23.54594533	         25.58372138	         -1.78659364	         -2.55360697	         -8.44020036	          0.12724287	          0.23743620	         -8.11349615	          2.13863862	          0.33464985	          0.08949505	          0.00999999	          0.00999999	          0.03614600	          0.01000000	          0.01000132	          0.08055485	          0.01082307	          0.08978050	          0.01477571	          0.01230676	          0.10193943	          0.26299654	          0.01466511	          0.10723160	          0.12819004	          0.00999999	          0.02276284	          0.09887451	          0.03696804	          0.07921630	          0.06701549	          0.01376379	          0.01000000	          0.00999999	          0.01210996	          0.01048567	          0.36378182	
          1.93694693	         -2.65939821	          0.10172388	         -7.94843691	          1.74892622	          0.85892426	          0.01521918	        -13.12873111	          0.06478588	          1.98703913	         -9.87753886	          9.35893209	         24.90476265	         25.15894902	         -1.63369675	         -2.29552614	         -9.21546532	         -0.23206643	          0.22957502	         -8.00349965	          1.77894392	          0.57604461	          0.10752811	          0.00999999	          0.00999999	          0.02984815	          0.00999999	          0.01000021	          0.06651948	          0.01000000	          0.07413771	          0.02150667	          0.01512008	          0.08417815	          0.24952109	          0.01210995	          0.12304408	          0.10585502	          0.00999999	          0.06615778	          0.11718366	          0.04048083	          0.06541416	          0.07277492	          0.01136568	          0.01000000	          0.00999999	          0.01000000	          0.00999999	          0.39335584	
          1.94960671	         -2.68864357	          0.00958225	         -7.79328228	          1.76247553	          0.85837190	          0.01428161	        -13.38762222	          0.06319064	          1.50817017	        -10.99259609	          8.47429802	         26.25979148	         24.77739679	         -1.49997859	         -2.09783802	        -10.08104707	         -0.53782630	          0.21873893	         -7.89661950	          1.42441659	          0.81667590	          0.12993895	          0.00999999	          0.00999999	          0.02464760	          0.00999999	          0.01000023	          0.05492955	          0.01000000	          0.06122042	          0.01775949	          0.02013394	          0.06951148	          0.23229433	          0.00999999	          0.12723342	          0.08741151	          0.00999999	          0.09919011	          0.12949419	          0.04178449	          0.05401681	          0.08117212	          0.01000000	          0.01000000	          0.01158769	          0.01000000	          0.00999999	          0.40858361	
          1.96226649	         -2.71200687	         -0.09558319	         -7.59640665	          1.77602894	          0.85831335	          0.01325678	        -13.50410811	          0.08046114	          1.00349547	        -12.33794568	          7.38344546	         27.57613764	         24.45829000	         -1.38276302	         -1.95383367	        -11.09240077	         -0.65411800	          0.20596501	         -7.79303542	          1.07844781	          1.05326880	          0.15354461	          0.00999999	          0.00999999	          0.02035315	          0.01525012	          0.01000093	          0.04535897	          0.01000001	          0.05055376	          0.01466519	          0.02794052	          0.05740023	          0.20961125	          0.00999999	          0.12456733	          0.07218148	          0.00999999	          0.12652920	          0.14096309	          0.04472962	          0.04460527	          0.08473338	          0.01000000	          0.01000000	          0.02194314	          0.01000000	          0.00999999	          0.40409148	
